<svg width="54" height="22" viewBox="0 0 54 22" fill="none" xmlns="http://www.w3.org/2000/svg">
<g id="Frame">
<g id="Group">
<path id="Vector" d="M31.4507 1.44507H4.6084C3.65592 1.44507 2.88379 2.20125 2.88379 3.13405V18.8629C2.88379 19.7957 3.65592 20.5519 4.6084 20.5519H31.4507C32.4032 20.5519 33.1753 19.7957 33.1753 18.8629V3.13405C33.1753 2.20125 32.4032 1.44507 31.4507 1.44507Z" fill="#F9F9F9" stroke="black" stroke-width="2.04455" stroke-linecap="round" stroke-linejoin="round"/>
<path id="Vector_2" d="M50.2061 1.44507H32.3184C31.3659 1.44507 30.5938 2.20125 30.5938 3.13405V18.8629C30.5938 19.7957 31.3659 20.5519 32.3184 20.5519H50.2061C51.1585 20.5519 51.9307 19.7957 51.9307 18.8629V3.13405C51.9307 2.20125 51.1585 1.44507 50.2061 1.44507Z" fill="#265697" stroke="black" stroke-width="2.04455" stroke-linecap="round" stroke-linejoin="round"/>
<g id="Group_2">
<path id="Vector_3" d="M10.6436 11.3763L8.42256 8.40145C8.33788 8.28805 8.25591 8.17273 8.17673 8.05558C8.11251 7.96044 8.05099 7.86358 7.99224 7.7651H7.97451C7.98362 7.91715 7.98985 8.07624 7.99416 8.24237C7.99895 8.4085 8.00087 8.59058 8.00087 8.78815V11.3763H6.24512V5.21167H8.03633L10.1654 8.0401C10.1917 8.07765 10.2238 8.12223 10.2617 8.17338C10.3383 8.27761 10.4123 8.3837 10.4836 8.49155C10.5171 8.54317 10.5425 8.58917 10.5602 8.62952H10.578C10.5629 8.51748 10.5549 8.40464 10.554 8.29163C10.5525 8.18636 10.5518 8.08108 10.5516 7.9758V5.21167H12.3074V11.3763H10.6436ZM13.5499 11.3763V5.21167H17.4697V6.6646H15.4461V7.56329H17.347V9.01622H15.4461V9.92337H17.6149V11.3763H13.5499ZM21.7014 6.6646V11.3763H19.7966V6.6646H18.0361V5.21167H23.484V6.6646H21.7014Z" fill="#4D4D4D"/>
<path id="Vector_4" d="M9.35501 15.6651C9.35501 15.8326 9.3253 15.9884 9.26636 16.1316C9.20633 16.2762 9.11108 16.4043 8.98891 16.5047C8.86336 16.6098 8.70235 16.6924 8.50589 16.752C8.30942 16.8116 8.0727 16.8412 7.79621 16.8412H6.01074V13.008H7.67353C8.19585 13.008 8.58591 13.0854 8.84419 13.2407C9.10296 13.3956 9.23234 13.6274 9.23234 13.9353C9.23501 14.098 9.18054 14.2567 9.07804 14.3849C9.03257 14.4427 8.97938 14.4943 8.91991 14.5383C8.76508 14.6533 8.58514 14.7315 8.39423 14.7669V14.7777C8.5471 14.7955 8.68271 14.8335 8.80203 14.8912C8.92134 14.9494 9.02198 15.0189 9.10392 15.1001C9.18538 15.1808 9.24767 15.2704 9.2908 15.3685C9.33393 15.4666 9.35501 15.5656 9.35501 15.6651ZM7.97926 14.1361C7.97926 14.0094 7.92798 13.9189 7.82591 13.8635C7.72433 13.8081 7.58488 13.7804 7.40902 13.7804H7.19003V14.505H7.53121C7.5983 14.505 7.66059 14.4956 7.7157 14.4768C7.76758 14.4601 7.81573 14.4338 7.85754 14.3994C7.89604 14.3673 7.92681 14.3272 7.94763 14.2821C7.96876 14.2362 7.97954 14.1865 7.97926 14.1361ZM8.10193 15.6599C8.10308 15.5805 8.07753 15.503 8.02921 15.4392C7.98088 15.3754 7.91248 15.329 7.83454 15.307C7.77635 15.2887 7.7155 15.2796 7.65436 15.2803H7.19003V16.064H7.58297C7.65964 16.064 7.7296 16.0546 7.79381 16.0368C7.85706 16.0189 7.91169 15.9931 7.95721 15.9594C8.00432 15.9247 8.04212 15.8793 8.06733 15.8271C8.09254 15.775 8.10441 15.7176 8.10193 15.6599ZM11.3202 16.8416V16.4244H11.3096C11.2219 16.576 11.1079 16.6947 10.967 16.7801C10.8256 16.8656 10.656 16.9082 10.4576 16.9082C10.3306 16.9109 10.2043 16.8886 10.0863 16.8426C9.98669 16.8029 9.89736 16.742 9.82469 16.6645C9.75202 16.5869 9.69782 16.4945 9.66601 16.3939C9.63078 16.2872 9.61331 16.1757 9.61425 16.0635C9.61425 15.964 9.62767 15.8641 9.65498 15.7641C9.6823 15.6642 9.73309 15.5717 9.80689 15.4863C9.8802 15.4004 9.98323 15.3263 10.115 15.2629C10.2473 15.1996 10.4179 15.155 10.6268 15.1278L11.3202 15.0395C11.3209 14.9955 11.3093 14.9522 11.2866 14.9142C11.2628 14.8757 11.2305 14.8429 11.1922 14.818C11.1483 14.7896 11.0996 14.7688 11.0485 14.7565C10.9893 14.7418 10.9284 14.7345 10.8673 14.735C10.7744 14.735 10.6819 14.7425 10.5899 14.7575C10.5005 14.7722 10.4122 14.7924 10.3254 14.818C10.2439 14.8418 10.1637 14.8699 10.0853 14.902C10.0145 14.931 9.94477 14.9627 9.87637 14.9968V14.2563C9.94346 14.2281 10.024 14.2 10.1179 14.1737C10.2157 14.146 10.3149 14.1228 10.415 14.1042C10.5204 14.0845 10.6253 14.0686 10.7308 14.0559C10.8362 14.0432 10.9354 14.0371 11.0279 14.0371C11.2828 14.0371 11.497 14.0643 11.67 14.1188C11.8425 14.1732 11.9815 14.2539 12.0874 14.3619C12.1928 14.4698 12.2685 14.6045 12.314 14.7655C12.3595 14.9269 12.3821 15.1156 12.3821 15.331V16.8416H11.3202ZM10.9272 15.6412C10.8492 15.6508 10.7752 15.6808 10.713 15.728C10.6862 15.7504 10.665 15.7786 10.651 15.8103C10.637 15.842 10.6307 15.8765 10.6325 15.911C10.6325 15.9415 10.6373 15.972 10.6474 16.002C10.6577 16.0341 10.675 16.0635 10.6982 16.0882C10.7214 16.113 10.7499 16.1324 10.7816 16.1452C10.8227 16.1613 10.8667 16.1689 10.9109 16.1677C10.9665 16.1691 11.0216 16.1581 11.0722 16.1357C11.1228 16.1133 11.1676 16.0799 11.2032 16.0382C11.2412 15.9935 11.2703 15.9422 11.289 15.8871C11.3096 15.8284 11.3202 15.7632 11.3202 15.6919V15.5877L10.9272 15.6412ZM14.7162 16.8416V15.3469C14.7162 15.2577 14.7095 15.1831 14.6956 15.1226C14.6855 15.0699 14.6643 15.0199 14.6333 14.9757C14.6071 14.9398 14.571 14.912 14.5293 14.8955C14.4834 14.8784 14.4346 14.8701 14.3856 14.8711C14.3374 14.87 14.2897 14.8811 14.2472 14.9034C14.2047 14.9257 14.1689 14.9584 14.1431 14.9982C14.1166 15.0386 14.0972 15.083 14.0856 15.1296C14.0728 15.1789 14.0664 15.2295 14.0664 15.2803V16.8416H12.9034V14.1042H14.0664V14.5318H14.0774C14.1158 14.4675 14.1627 14.4055 14.2193 14.3459C14.2758 14.2863 14.341 14.2333 14.4143 14.1882C14.5782 14.0876 14.7681 14.0351 14.9615 14.0371C15.0928 14.0371 15.2146 14.0559 15.3262 14.0934C15.4383 14.131 15.5351 14.1934 15.6171 14.2816C15.6985 14.3699 15.7632 14.4867 15.8092 14.6322C15.8557 14.7777 15.8792 14.9569 15.8792 15.1709V16.8416H14.7162ZM18.2047 16.8416L17.5822 15.4351H17.5717V16.8416H16.4087V12.7883H17.5717V15.3896H17.5822L18.1477 14.1038H19.4578L18.7016 15.3572L19.5019 16.8412L18.2047 16.8416ZM20.9591 13.366C20.9591 13.4411 20.9447 13.5115 20.9155 13.5772C20.8869 13.6426 20.844 13.7011 20.7899 13.7485C20.7304 13.7995 20.6612 13.8385 20.5863 13.8635C20.5053 13.8916 20.4133 13.9062 20.3093 13.9062C20.2092 13.9062 20.1191 13.8916 20.039 13.8621C19.9644 13.8358 19.8955 13.796 19.8359 13.7447C19.7814 13.6971 19.7378 13.6387 19.7079 13.5735C19.6781 13.5082 19.6625 13.4376 19.6624 13.366C19.6624 13.2844 19.6787 13.2107 19.7118 13.1455C19.7443 13.0807 19.7894 13.0253 19.8469 12.9798C19.9044 12.9343 19.9724 12.9 20.0515 12.8756C20.1306 12.8517 20.2168 12.8395 20.3093 12.8395C20.4075 12.8395 20.4967 12.8526 20.5772 12.8784C20.6572 12.9043 20.7257 12.9404 20.7818 12.9864C20.8385 13.0327 20.8839 13.0909 20.9146 13.1567C20.9452 13.2225 20.9605 13.2937 20.9591 13.366ZM19.7276 16.8416V14.1042H20.891V16.8416H19.7276ZM23.2659 16.8416V15.3469C23.2659 15.2577 23.2587 15.1831 23.2453 15.1226C23.2351 15.0699 23.2137 15.0199 23.1825 14.9757C23.1565 14.9399 23.1206 14.9121 23.079 14.8955C23.0331 14.8784 22.9843 14.8701 22.9353 14.8711C22.887 14.8699 22.8393 14.881 22.7967 14.9033C22.7541 14.9256 22.7181 14.9583 22.6923 14.9982C22.6659 15.0386 22.6465 15.083 22.6348 15.1296C22.6221 15.1789 22.6156 15.2295 22.6157 15.2803V16.8416H21.4531V14.1042H22.6161V14.5318H22.6272C22.6655 14.4675 22.7125 14.4055 22.769 14.3459C22.8255 14.2863 22.8902 14.2333 22.964 14.1882C23.1279 14.0876 23.3178 14.0351 23.5113 14.0371C23.6426 14.0371 23.7638 14.0559 23.8754 14.0934C23.9876 14.131 24.0849 14.1934 24.1668 14.2816C24.2483 14.3699 24.3125 14.4867 24.3589 14.6322C24.4054 14.7777 24.4284 14.9569 24.4289 15.1709V16.8416H23.2659ZM27.9883 16.4591C27.9883 16.6056 27.974 16.7482 27.9447 16.8871C27.9155 17.026 27.8685 17.157 27.8039 17.2799C27.6658 17.5426 27.4466 17.7559 27.1775 17.8895C27.03 17.9646 26.8594 18.0228 26.6658 18.0646C26.4717 18.1068 26.2513 18.1275 26.0035 18.1275C25.8334 18.1271 25.6636 18.1136 25.4956 18.0871C25.426 18.0762 25.3569 18.0621 25.2886 18.0449C25.239 18.0329 25.1906 18.0167 25.1439 17.9965V17.1035C25.2521 17.1679 25.3679 17.2192 25.4889 17.256C25.5627 17.2795 25.6413 17.2982 25.7237 17.3147C25.8066 17.3306 25.889 17.3386 25.9709 17.3386C26.1128 17.3386 26.2369 17.3208 26.3438 17.2851C26.4501 17.2499 26.5397 17.2011 26.6121 17.1396C26.6854 17.0781 26.74 17.0068 26.7765 16.9256C26.8129 16.8444 26.8311 16.7576 26.8311 16.6652V16.4967H26.8201C26.7415 16.61 26.638 16.7046 26.5172 16.7736C26.3621 16.864 26.1845 16.9108 26.004 16.9087C25.8219 16.9087 25.6585 16.8759 25.5138 16.812C25.3708 16.7493 25.2445 16.655 25.1448 16.5366C25.0392 16.408 24.9609 16.2599 24.9148 16.1011C24.8597 15.9143 24.8329 15.7206 24.8353 15.5262C24.8353 15.2784 24.8707 15.0616 24.9416 14.8753C25.013 14.689 25.107 14.5341 25.2244 14.4102C25.3418 14.2863 25.4764 14.1929 25.6283 14.131C25.7802 14.0686 25.9374 14.0371 26.0994 14.0371C26.1976 14.0371 26.2848 14.0475 26.3615 14.0681C26.4382 14.0883 26.5052 14.115 26.5632 14.1479C26.6217 14.1807 26.6715 14.2183 26.7137 14.2605C26.7554 14.3027 26.7908 14.345 26.8201 14.3872H26.8311V14.1042H27.9883V16.4591ZM26.8498 15.3952C26.8498 15.338 26.8436 15.2789 26.8306 15.2174C26.8188 15.158 26.7968 15.1011 26.7654 15.0489C26.7342 14.998 26.6916 14.9547 26.6409 14.9222C26.5825 14.8865 26.5146 14.8687 26.4458 14.8711C26.382 14.8701 26.3192 14.8864 26.2642 14.918C26.209 14.9508 26.1625 14.9958 26.1281 15.0494C26.0907 15.1052 26.0625 15.1714 26.0433 15.2484C26.0241 15.3249 26.0146 15.4089 26.0146 15.4994C26.0146 15.6759 26.0476 15.8157 26.1128 15.9195C26.1784 16.0227 26.2819 16.0743 26.4243 16.0743C26.4874 16.0752 26.5496 16.0604 26.6052 16.0311C26.6608 16.0019 26.7079 15.9593 26.742 15.9072C26.7774 15.8547 26.8043 15.7927 26.8225 15.7214C26.8407 15.6501 26.8498 15.5726 26.8498 15.4886V15.3952Z" fill="#4D4D4D"/>
</g>
<path id="Vector_5" d="M40.9846 16.9421V15.8585C40.4312 15.7905 39.9817 15.6689 39.6353 15.4943C39.2888 15.3198 38.9898 15.0377 38.7377 14.6482C38.4857 14.2587 38.3391 13.7833 38.2979 13.2216L39.4105 13.0165C39.4967 13.5984 39.6487 14.0259 39.8658 14.299C40.1772 14.6843 40.55 14.8993 40.9846 14.9434V11.4932C40.5294 11.4087 40.0646 11.2364 39.5892 10.9755C39.2448 10.7907 38.962 10.5126 38.7746 10.1744C38.5839 9.83325 38.4885 9.44609 38.4885 9.01247C38.4885 8.24189 38.7674 7.61773 39.3247 7.13999C39.6975 6.819 40.251 6.62188 40.9846 6.54961V6.03198H41.6363V6.54961C42.2799 6.61015 42.7903 6.79459 43.1674 7.10339C43.6514 7.49759 43.9418 8.03728 44.0405 8.72338L42.8966 8.89232C42.831 8.46667 42.6949 8.14052 42.4878 7.91385C42.2808 7.68671 41.9972 7.53748 41.6363 7.46521V10.5902C42.1936 10.7263 42.5626 10.8329 42.7433 10.9093C43.0874 11.0576 43.3681 11.2383 43.5852 11.4509C43.8028 11.664 43.9695 11.9164 44.0865 12.2098C44.2034 12.5026 44.2618 12.8198 44.2618 13.161C44.2618 13.9119 44.0174 14.5379 43.5301 15.0396C43.0423 15.5417 42.4112 15.8102 41.6363 15.8468V16.9421H40.9846ZM40.9846 7.45301C40.5543 7.5173 40.2151 7.68578 39.9674 7.95891C39.7223 8.22402 39.5891 8.57042 39.595 8.928C39.595 9.29733 39.7004 9.60659 39.9117 9.85531C40.1226 10.104 40.4805 10.303 40.9851 10.4513L40.9846 7.45301ZM41.6363 14.9429C42.0666 14.8913 42.4222 14.7083 42.703 14.3953C42.9839 14.0822 43.1242 13.6951 43.1242 13.2333C43.1242 12.84 43.025 12.5237 42.8262 12.2853C42.6273 12.046 42.2305 11.8324 41.6363 11.6438V14.9429Z" fill="white"/>
</g>
</g>
</svg>
