<svg width="45" height="20" viewBox="0 0 45 20" fill="none" xmlns="http://www.w3.org/2000/svg">
<path d="M4.31134 14.6224H4.58819L4.32891 15.6739C4.28936 15.8284 4.29815 15.9486 4.35089 16.0258C4.40362 16.1031 4.5003 16.1417 4.64532 16.1417C4.78594 16.1417 4.9046 16.1031 4.99688 16.0258C5.08917 15.9486 5.15069 15.8284 5.19024 15.6739L5.44952 14.6224H5.73077L5.4671 15.6996C5.40997 15.9314 5.30889 16.1074 5.15948 16.2232C5.01446 16.3391 4.8211 16.3992 4.5838 16.3992C4.34649 16.3992 4.18389 16.3434 4.096 16.2275C4.00811 16.1117 3.99053 15.9357 4.04766 15.7039L4.31134 14.6224ZM5.69122 16.352L6.13067 14.5537L6.96563 15.6095C6.9876 15.6395 7.00958 15.6696 7.03155 15.7039C7.05352 15.7383 7.0755 15.7769 7.10186 15.8198L7.3963 14.6224H7.65557L7.21612 16.4164L6.36358 15.3391L6.29766 15.249C6.27569 15.2147 6.25811 15.1846 6.24493 15.146L5.9505 16.3477H5.69122V16.352ZM7.6336 16.352L8.05548 14.6224H8.33673L7.91485 16.352H7.6336ZM8.31475 16.352L8.73663 14.6224H9.69903L9.6419 14.8627H8.96075L8.85528 15.2919H9.53643L9.47491 15.5365H8.79376L8.596 16.3477H8.31475V16.352ZM9.58917 16.352L10.011 14.6224H10.2923L9.87042 16.352H9.58917ZM10.2703 16.352L10.6922 14.6224H11.6546L11.5975 14.8627H10.9163L10.8108 15.2962H11.492L11.4305 15.5408H10.7493L10.6131 16.0988H11.2942L11.2327 16.352H10.2703ZM11.5579 16.352L11.9798 14.6224H12.3577C12.6038 14.6224 12.7752 14.6353 12.8675 14.661C12.9598 14.6868 13.0389 14.7254 13.1004 14.7855C13.1795 14.8627 13.2322 14.9614 13.2542 15.0773C13.2762 15.1975 13.2674 15.3348 13.2322 15.485C13.1927 15.6395 13.1356 15.7726 13.0565 15.8928C12.9774 16.0129 12.8763 16.1074 12.7576 16.1846C12.6697 16.2447 12.5731 16.2833 12.4676 16.3091C12.3665 16.3348 12.2127 16.3477 12.0106 16.3477H11.5579V16.352ZM11.9007 16.0945H12.138C12.2654 16.0945 12.3665 16.0859 12.4368 16.0687C12.5071 16.0516 12.5687 16.0215 12.6258 15.9829C12.7049 15.9271 12.7708 15.8584 12.8235 15.7726C12.8763 15.691 12.9158 15.5923 12.9422 15.4807C12.9686 15.3692 12.9774 15.2747 12.9642 15.1932C12.951 15.1117 12.9202 15.0387 12.8675 14.9829C12.8279 14.94 12.7796 14.9142 12.7137 14.8971C12.6478 14.8799 12.5467 14.8713 12.4017 14.8713H12.1995L11.9007 16.0945ZM14.5242 15.5752L14.3353 16.352H14.0716L14.4935 14.6224H14.9197C15.0472 14.6224 15.1351 14.631 15.1922 14.6438C15.2493 14.6567 15.2933 14.6782 15.3284 14.7125C15.3724 14.7511 15.4031 14.8069 15.4163 14.8756C15.4295 14.9443 15.4251 15.0172 15.4075 15.0988C15.3856 15.1803 15.3548 15.2576 15.3065 15.3262C15.2581 15.3949 15.201 15.4507 15.1395 15.4893C15.0867 15.5194 15.0296 15.5451 14.9681 15.558C14.9065 15.5709 14.8099 15.5795 14.6868 15.5795H14.5242V15.5752ZM14.5989 15.3434H14.6692C14.8231 15.3434 14.9329 15.3262 14.9944 15.2919C15.056 15.2576 15.0955 15.1975 15.1175 15.1117C15.1395 15.0215 15.1263 14.9529 15.0823 14.9185C15.034 14.8799 14.9373 14.8627 14.7923 14.8627H14.722L14.5989 15.3434ZM16.3611 16.352L16.2732 15.9056H15.5877L15.2801 16.352H14.9857L16.2601 14.5537L16.6556 16.352H16.3611ZM15.7547 15.6696H16.2337L16.1546 15.2747C16.1502 15.249 16.1458 15.2189 16.1458 15.1889C16.1414 15.1546 16.1414 15.1202 16.1414 15.0816C16.1238 15.1202 16.1063 15.1546 16.0843 15.1889C16.0667 15.2232 16.0491 15.2533 16.0315 15.279L15.7547 15.6696ZM17.0599 16.352L17.2532 15.5623L16.9017 14.6267H17.1961L17.4158 15.2147C17.4202 15.2318 17.4246 15.249 17.4334 15.2747C17.4422 15.3005 17.4466 15.3262 17.4554 15.352L17.5081 15.2747C17.5257 15.249 17.5433 15.2275 17.5608 15.2061L18.075 14.6267H18.3563L17.5345 15.558L17.3411 16.3477H17.0599V16.352ZM19.7361 15.4979C19.7361 15.485 19.7405 15.4464 19.7493 15.3863C19.7537 15.3348 19.7581 15.2962 19.7625 15.2619C19.7449 15.3005 19.7273 15.3391 19.7054 15.382C19.6834 15.4207 19.657 15.4636 19.6263 15.5022L18.9495 16.425L18.7298 15.485C18.721 15.4464 18.7122 15.4078 18.7078 15.3735C18.7034 15.3391 18.699 15.3005 18.699 15.2662C18.6902 15.3005 18.6771 15.3391 18.6639 15.382C18.6507 15.4207 18.6331 15.4636 18.6111 15.5065L18.2156 16.3563H17.9564L18.8045 14.5537L19.0462 15.6438C19.0506 15.661 19.055 15.691 19.0594 15.7297C19.0638 15.7683 19.0726 15.8198 19.0814 15.8799C19.1121 15.8284 19.1517 15.7683 19.2044 15.691C19.2176 15.6696 19.2308 15.6567 19.2352 15.6438L19.9998 14.5537L19.9734 16.3563H19.7142L19.7361 15.4979ZM20.202 16.352L20.6238 14.6224H21.5862L21.5291 14.8627H20.848L20.7425 15.2962H21.4236L21.3621 15.5408H20.681L20.5447 16.0988H21.2259L21.1644 16.352H20.202ZM21.4852 16.352L21.9246 14.5537L22.7596 15.6095C22.7815 15.6395 22.8035 15.6696 22.8255 15.7039C22.8475 15.7383 22.8694 15.7769 22.8958 15.8198L23.1902 14.6224H23.4495L23.0101 16.4164L22.1575 15.3391L22.0916 15.249C22.0696 15.2147 22.0521 15.1846 22.0389 15.146L21.7444 16.3477H21.4852V16.352ZM24.346 14.8584L23.9813 16.3477H23.7L24.0648 14.8584H23.6077L23.6649 14.6181H24.8602L24.803 14.8584H24.346ZM24.6404 16.0044L24.8909 15.9014C24.8953 15.9786 24.9173 16.0387 24.9656 16.0773C25.014 16.1159 25.0799 16.1374 25.1678 16.1374C25.2513 16.1374 25.3216 16.1159 25.3831 16.0687C25.4446 16.0215 25.4842 15.9614 25.5018 15.8842C25.5281 15.7812 25.4666 15.691 25.3172 15.6138C25.2952 15.6009 25.282 15.5923 25.2689 15.588C25.1019 15.4936 24.9964 15.4121 24.9524 15.3348C24.9085 15.2576 24.8997 15.1674 24.9261 15.0601C24.9612 14.9185 25.0359 14.8069 25.1546 14.7168C25.2732 14.631 25.4051 14.5838 25.5633 14.5838C25.6907 14.5838 25.7918 14.6095 25.8665 14.6567C25.9412 14.7039 25.9808 14.7769 25.9939 14.867L25.7479 14.9786C25.7259 14.9228 25.6995 14.8842 25.6644 14.8584C25.6292 14.8327 25.5853 14.8198 25.5325 14.8198C25.4578 14.8198 25.3919 14.8413 25.3392 14.8799C25.2864 14.9185 25.2513 14.97 25.2337 15.0387C25.2073 15.1417 25.282 15.2404 25.4534 15.3305C25.4666 15.3391 25.4754 15.3434 25.4842 15.3477C25.6336 15.425 25.7347 15.5022 25.7786 15.5795C25.8226 15.6567 25.8314 15.7468 25.805 15.8627C25.7654 16.0258 25.6819 16.1546 25.5545 16.2533C25.4271 16.3477 25.2776 16.3992 25.1019 16.3992C24.9568 16.3992 24.8426 16.3649 24.7635 16.2962C24.6756 16.2275 24.636 16.1288 24.6404 16.0044ZM26.7103 16.352L27.1321 14.6224H27.4134L26.9915 16.352H26.7103ZM27.3958 16.352L27.8353 14.5537L28.6702 15.6095C28.6922 15.6395 28.7142 15.6696 28.7361 15.7039C28.7581 15.7383 28.7801 15.7769 28.8065 15.8198L29.1009 14.6224H29.3602L28.9207 16.4164L28.0682 15.3391L28.0023 15.249C27.9803 15.2147 27.9627 15.1846 27.9495 15.146L27.6551 16.3477H27.3958V16.352ZM30.2566 14.8584L29.8919 16.3477H29.6107L29.9754 14.8584H29.5184L29.5755 14.6181H30.7708L30.7137 14.8584H30.2566ZM30.5599 16.352L30.9817 14.6224H31.9485L31.8914 14.8627H31.2103L31.1048 15.2962H31.7859L31.7244 15.5408H31.0433L30.907 16.0988H31.5882L31.5267 16.352H30.5599ZM32.2957 15.5752L32.1067 16.3477H31.8431L32.2649 14.6181H32.6561C32.7703 14.6181 32.8582 14.6267 32.9153 14.6395C32.9769 14.6524 33.0252 14.6782 33.0604 14.7125C33.1043 14.7554 33.1307 14.8069 33.1439 14.8756C33.157 14.94 33.1526 15.0129 33.1351 15.0945C33.0999 15.2318 33.0428 15.3434 32.9549 15.4207C32.867 15.4979 32.7571 15.5451 32.6253 15.5623L33.0252 16.3477H32.7088L32.3265 15.5752H32.2957ZM32.366 15.3563H32.4188C32.5682 15.3563 32.6692 15.3391 32.7264 15.3048C32.7835 15.2704 32.8231 15.2104 32.845 15.1202C32.867 15.0258 32.8582 14.9571 32.8143 14.9185C32.7703 14.8799 32.678 14.8584 32.5374 14.8584H32.4847L32.366 15.3563ZM33.1966 16.352L33.6185 14.6224H34.5809L34.5237 14.8627H33.8426L33.7371 15.2919H34.4183L34.3567 15.5365H33.6756L33.4778 16.3477H33.1966V16.352ZM35.5169 16.352L35.429 15.9056H34.7435L34.4358 16.352H34.1414L35.4158 14.5537L35.8113 16.352H35.5169ZM34.9061 15.6696H35.3851L35.306 15.2747C35.3016 15.249 35.2972 15.2189 35.2972 15.1889C35.2928 15.1546 35.2928 15.1202 35.2928 15.0816C35.2752 15.1202 35.2576 15.1546 35.2356 15.1889C35.2181 15.2232 35.2005 15.2533 35.1829 15.279L34.9061 15.6696ZM37.6395 15.043C37.5779 14.9743 37.5032 14.9228 37.4241 14.8928C37.345 14.8584 37.2571 14.8413 37.1561 14.8413C36.9671 14.8413 36.8001 14.9014 36.6507 15.0215C36.5013 15.1417 36.4046 15.3005 36.3563 15.4936C36.3123 15.6782 36.3299 15.8327 36.4178 15.9571C36.5013 16.0773 36.6331 16.1374 36.8089 16.1374C36.91 16.1374 37.011 16.1202 37.1121 16.0816C37.2132 16.0473 37.3143 15.9915 37.4197 15.9185L37.3406 16.2361C37.2527 16.2919 37.1605 16.3305 37.0638 16.3563C36.9671 16.382 36.8704 16.3949 36.7649 16.3949C36.6331 16.3949 36.5145 16.3735 36.4134 16.3305C36.3123 16.2876 36.2288 16.2232 36.1629 16.1374C36.097 16.0559 36.0574 15.9571 36.0398 15.8456C36.0223 15.734 36.0267 15.6138 36.0618 15.485C36.0926 15.3563 36.1453 15.2404 36.2156 15.1288C36.2859 15.0172 36.3782 14.9185 36.4837 14.837C36.5892 14.7511 36.7034 14.6868 36.8265 14.6438C36.9495 14.6009 37.0726 14.5795 37.2 14.5795C37.3011 14.5795 37.3934 14.5923 37.4813 14.6224C37.5648 14.6524 37.6439 14.6953 37.7142 14.7554L37.6395 15.043ZM37.6658 16.352L38.0877 14.6224H39.0501L38.993 14.8627H38.3118L38.2064 15.2962H38.8875L38.826 15.5408H38.1448L38.0086 16.0988H38.6898L38.6282 16.352H37.6658Z" fill="#3D3D3C"/>
<path d="M32.55 13.1158H30.6208L33.3014 3.66089H35.2306L32.55 13.1158ZM31.548 3.95703C31.4162 3.77677 31.2096 3.68664 30.9284 3.68664H20.3288L19.8058 5.54072H29.4474L28.8849 7.51926H21.1725V7.51497H19.2433L17.6437 13.1587H19.5729L20.6452 9.37333H29.3156C29.5881 9.37333 29.8429 9.28321 30.0802 9.10295C30.3176 8.92269 30.4758 8.69952 30.5505 8.43342L31.6227 4.64801C31.7062 4.36475 31.6799 4.13728 31.548 3.95703ZM16.5187 12.5235C16.4133 12.8969 16.0617 13.1587 15.6662 13.1587H5.72136C5.4489 13.1587 5.24675 13.0686 5.11491 12.8884C4.98308 12.7081 4.95231 12.4849 5.03142 12.2188L7.4572 3.68664H9.3864L7.21989 11.309H14.9367L17.1032 3.68664H19.0324L16.5187 12.5235Z" fill="#70706E"/>
<path d="M38.5625 3.67822L41.0015 8.41642L35.873 13.1546L38.5625 3.67822Z" fill="#098041"/>
<path d="M36.8481 3.67822L39.2871 8.41642L34.1543 13.1546L36.8481 3.67822Z" fill="#E97626"/>
</svg>
