<svg width="49" height="21" viewBox="0 0 49 21" fill="none" xmlns="http://www.w3.org/2000/svg">
<g clip-path="url(#clip0_2471_984)">
<path d="M21.7578 16.3216H18.3929L20.496 3.73276H23.8612L21.7578 16.3216ZM15.5621 3.73276L12.3542 12.3914L11.9746 10.5269L11.9749 10.5276L10.8427 4.86623C10.8427 4.86623 10.7058 3.73276 9.24648 3.73276H3.94309L3.88086 3.94591C3.88086 3.94591 5.50265 4.27458 7.40066 5.38482L10.3241 16.3219H13.8301L19.1836 3.73276H15.5621ZM42.029 16.3216H45.1187L42.4248 3.73242H39.7199C38.4708 3.73242 38.1665 4.67059 38.1665 4.67059L33.148 16.3216H36.6557L37.3572 14.4516H41.6348L42.029 16.3216ZM38.3263 11.8685L40.0943 7.15743L41.0889 11.8685H38.3263ZM33.4111 6.76008L33.8913 4.0567C33.8913 4.0567 32.4096 3.50781 30.8649 3.50781C29.195 3.50781 25.2296 4.21868 25.2296 7.67534C25.2296 10.9276 29.8837 10.968 29.8837 12.6763C29.8837 14.3846 25.7091 14.0785 24.3314 13.0013L23.8311 15.8279C23.8311 15.8279 25.3337 16.5388 27.6293 16.5388C29.9256 16.5388 33.3897 15.3807 33.3897 12.2288C33.3897 8.95564 28.6937 8.65089 28.6937 7.22781C28.6941 5.8044 31.9712 5.98725 33.4111 6.76008Z" fill="#2566AF"/>
<path d="M11.9749 10.5272L10.8427 4.8659C10.8427 4.8659 10.7058 3.73242 9.24648 3.73242H3.94309L3.88086 3.94558C3.88086 3.94558 6.42987 4.46012 8.87483 6.38798C11.2126 8.23064 11.9749 10.5272 11.9749 10.5272Z" fill="#E6A540"/>
</g>
<defs>
<clipPath id="clip0_2471_984">
<rect width="49" height="21" fill="white"/>
</clipPath>
</defs>
</svg>
